/* XPM */
static char * ZXY_xpm[] = {
"40 40 2 1",
" 	c None",
".	c #000000",
"    ..  ..                              ",
"     .  .                               ",
"     ....                               ",
"      ..                                ",
"      ..                                ",
"     ....                               ",
"     .  .                               ",
"    ..  ..                              ",
"                                        ",
"      .                                 ",
"      .                                 ",
"     ...                                ",
"     ...                                ",
"     ...                                ",
"    .....                               ",
"    .....                               ",
"      .                                 ",
"      .                                 ",
"      .                                 ",
"      .                                 ",
"      .                                 ",
"      .                                 ",
"      .                                 ",
"      .                                 ",
"      .                                 ",
"      .                                 ",
" ...........                            ",
" .         .                            ",
" .  ..  .. .                    ......  ",
" .   .  .  .            ..          ..  ",
" .   ....  .            .....      ..   ",
" .   ....  ....................   ..    ",
" .    ..   .            .....     .     ",
" .    ..   .            ...      ..     ",
" .    ..   .                    ..      ",
" .    ..   .                    ......  ",
" .         .                            ",
" ...........                            ",
"                                        ",
"                                        "};
